<?xml version="1.0" encoding="UTF-8"?>
<!-- Created with Inkscape (http://www.inkscape.org/) -->
<svg width="295.76mm" height="48.463mm" version="1.1" viewBox="0 0 295.76 48.463" xmlns="http://www.w3.org/2000/svg">
 <g transform="translate(9.1393 -140.66)" stroke-width=".26458">
  <text x="71.092346" y="94.188332" fill="#000000" font-family="sans-serif" font-size="22.578px" style="font-variant-caps:normal;font-variant-east-asian:normal;font-variant-ligatures:normal;font-variant-numeric:normal;line-height:1.25" xml:space="preserve"><tspan x="71.092346" y="94.188332" font-family="sans-serif" font-size="22.578px" stroke-width=".26458" style="font-variant-caps:normal;font-variant-east-asian:normal;font-variant-ligatures:normal;font-variant-numeric:normal">FDelgadillo</tspan></text>
  <g transform="translate(30.674 6.1349)" aria-label="FDelgadillo">
   <g fill="#1a1a1a">
    <path d="m-10.4 144.07q0 0.508-0.508 0.8128-0.508 0.254-0.9652 0.254-0.5588 0-1.016-0.2032-0.4064-0.254-0.5588-0.8636-0.6604-2.1336-2.032-3.7084-1.3716-1.6256-3.81-1.6256h-8.0264v15.291q0.762 0 1.524 0t1.524 0q1.8796 0 3.7592-0.1016 1.9304-0.1016 3.7592-0.508 0.7112-0.2032 1.4732-0.4572t1.524-0.254q0.6096 0 0.6096 0.5588 0 0.4064-0.2032 1.0668-0.1524 0.6604-0.3048 1.0668-0.2032 0.6604-0.508 0.8128-0.254 0.1016-0.9144 0.1016-2.3368 0-4.6228-0.254t-4.6228-0.254q-1.0668 0-2.032 0.4572-0.9652 0.4064-0.9652 1.7272v11.786q0 1.524 0.5588 2.0828t1.524 0.6096q0.9652 0 2.0828 0 0.4064 0 0.7112 0.2032 0.3556 0.1524 0.3556 0.6096 0 1.0668-1.0668 1.0668-0.254 0-0.508 0t-0.508-0.0508q-1.6764-0.1016-3.3528-0.1016t-3.302 0q-1.6764 0-3.3528 0.1016-1.6764 0.1524-3.3528 0.1524-0.4064 0-0.762-0.1524-0.3556-0.1016-0.3556-0.6096 0-0.6604 0.4064-0.8128 0.4572-0.1524 1.1176-0.1016 0.6604 0 1.3208-0.1524 0.6604-0.2032 1.0668-0.9144 0.4572-0.762 0.4572-2.3876v-27.94q0-1.1684-0.3556-1.778-0.3556-0.6604-1.6256-0.6604-0.4572 0-0.9144 0.0508-0.4064 0-0.8636 0-0.6096 0-1.2192-0.1016-0.5588-0.1524-0.5588-0.9652 0-0.4572 0.3048-0.7112t0.7112-0.254q1.778 0 3.5052 0.1016 1.778 0.0508 3.5052 0.0508 7.5184 0 14.986-0.1524 1.3208-0.0508 2.6924-0.1016t2.6924-0.254q0.2032 1.4732 0.4064 2.9464t0.4064 2.9464q0.0508 0.3556 0.1016 0.762 0.1016 0.4064 0.1016 0.8128z"/>
    <path d="m22.366 154.94q0-2.8956-0.6604-5.7912-0.6096-2.8956-2.032-5.2832t-3.7592-3.81q-2.3368-1.4732-5.7404-1.4732-3.4544 0-6.8072 0.1524v31.09q0 1.3208 0.4064 1.8796t1.8288 0.5588q1.7272 0 3.6068-0.1524 1.9304-0.1524 3.7084-0.6604 1.8288-0.5588 3.2004-1.6256 3.302-2.6924 4.7752-6.7056t1.4732-8.1788zm7.366-0.7112q0 3.2512-0.9652 6.4008t-2.8448 5.842q-1.8288 2.6416-4.572 4.4704-1.778 1.1684-4.1656 1.9304-2.3876 0.7112-4.8768 1.016-2.4384 0.3048-4.572 0.3048-1.778 0-3.556-0.1524-1.7272-0.1016-3.5052-0.1016-1.27 0-2.5908 0-1.27 0.0508-2.5908 0.1524-0.508 0.0508-0.9652 0.0508-0.4572 0.0508-0.9144 0.0508-0.9144 0-0.9144-0.8128 0-0.508 0.4572-0.6604t1.016-0.2032q0.5588-0.1016 0.8636-0.2032 0.8636-0.4064 1.1176-1.27t0.254-1.6764q0-4.6228 0-9.1948t0-9.144q0-2.6416 0-5.2324 0.0508-2.6416-0.1016-5.2324 0-0.1016-0.0508-0.4064 0-0.3556 0-0.4064-0.1524-0.6096-0.8128-0.8128t-1.4224-0.1524q-0.762 0-1.27 0-0.4064 0-0.762-0.1524-0.3556-0.2032-0.3556-0.7112 0-0.9652 0.9652-0.9652 1.27 0 2.4892 0.1016 1.27 0.0508 2.54 0.0508 3.6068 0 7.2136-0.254 3.6576-0.3048 7.2644-0.3048 5.4864 0 9.4488 2.1336t6.0452 6.096q2.1336 3.9624 2.1336 9.4488z"/>
    <path d="m51.118 156.11q0-1.016-0.1016-2.4384t-0.508-2.7432q-0.3556-1.3716-1.1684-2.286t-2.2352-0.9144q-1.3716 0-2.4384 0.9144-1.016 0.8636-1.7272 2.2352-0.7112 1.3208-1.1176 2.794-0.4064 1.4224-0.6096 2.54 0.8636 0 1.6764 0.0508 0.8636 0 1.6764 0 3.302 0 6.5532-0.1524zm7.3152 11.227q0 0.1524-0.1016 0.4572-0.0508 0.254-0.1524 0.4064-0.3556 0.8128-1.3208 1.8796-0.9652 1.016-1.7272 1.5748-3.4036 2.5908-7.874 2.5908-4.0132 0-6.9596-1.6764-2.9464-1.7272-4.5212-4.7752t-1.5748-7.0104 1.524-7.1628q1.5748-3.2512 4.4704-5.1308 2.9464-1.9304 7.0612-1.9304 4.7244 0 7.5692 2.5908t2.8448 7.4168q0 1.3208-1.2192 1.3208-2.2352 0-4.4704-0.0508t-4.4704-0.0508q-1.6256 0-3.2512 0t-3.2512 0.0508q-0.1524 1.524-0.1524 3.0988 0 1.4224 0.3556 3.3528 0.4064 1.9304 1.1684 3.7592 0.8128 1.8288 2.0828 3.048 1.27 1.1684 3.0988 1.1684 2.286 0 3.81-0.6604 1.5748-0.6604 2.794-1.8796t2.4892-2.8956q0.1524-0.2032 0.3048-0.3048 0.2032-0.1524 0.4572-0.1524 0.3556 0 0.6604 0.3048 0.3556 0.254 0.3556 0.6604z"/>
    <path d="m75.807 173.28q0 0.8128-0.8128 0.8128-1.5748 0-3.0988-0.1524-1.524-0.1016-3.0988-0.1016-1.6256 0-3.302 0.1016-1.6256 0.1524-3.2512 0.1524-0.3556 0-0.508-0.254-0.1524-0.3048-0.1524-0.6096 0-0.5588 0.508-0.7112 0.5588-0.1524 1.2192-0.1016 0.7112 0.0508 1.0668 0.0508 1.1176 0 1.1176-1.2192v-4.1148q0-6.7056 0-13.36 0-6.7056 0-13.411 0-0.5588-0.1016-1.3716-0.1016-0.8636-0.9652-0.8636-0.6096 0-1.2192 0.2032-0.5588 0.1524-1.1684 0.1524-0.762 0-0.762-0.8128 0-0.5588 0.6604-0.8128 0.6604-0.2032 1.3716-0.3048 0.762-0.1016 1.4224-0.254 1.524-0.3556 2.9972-0.7112 1.524-0.4064 2.9972-0.762 0.1524-0.0508 0.3048-0.0508 0.1524-0.0508 0.3048-0.0508 0.3048 0 0.5588 0.1524 0.3048 0.1016 0.3048 0.508 0 8.9408-0.0508 17.932t-0.0508 17.932q0 0.8636 0.508 1.1176t1.2192 0.2032q0.7112-0.1016 1.27-0.1016 0.7112 0 0.7112 0.8128z"/>
    <path d="m96.483 176.02q0-1.9812-0.8636-2.8448-0.8128-0.8636-2.1844-1.1176t-2.8956-0.4064l-3.81-0.4064q-1.016 1.1684-1.3716 2.3368t-0.3556 2.6416q0 3.048 1.6764 4.1656 1.7272 1.1176 4.4704 1.1176 2.6416 0 3.9624-1.4732 1.3716-1.4224 1.3716-4.0132zm-2.1844-21.133q0-0.9144-0.0508-2.1336t-0.3556-2.3876-1.016-1.9304-1.9812-0.762q-1.524 0-2.3876 0.9144-0.8128 0.8636-1.1684 2.2352-0.3556 1.3208-0.4572 2.7432-0.0508 1.4224-0.0508 2.4892 0 1.1176 0.1016 2.3876t0.4572 2.3876q0.4064 1.1176 1.2192 1.8288t2.286 0.7112q1.27 0 1.9304-0.7112 0.7112-0.762 1.016-1.8796 0.3048-1.1684 0.3556-2.3368 0.1016-1.1684 0.1016-2.0828zm10.058-6.9596q0 0.6096-0.8128 0.9144-0.762 0.3048-1.7272 0.4064-0.9144 0.0508-1.3716 0.0508-0.5588 0-1.1684 0-0.5588-0.0508-1.1176-0.1016 0.8128 0.7112 1.3716 1.8796 0.6096 1.1684 0.9144 2.4892 0.3556 1.27 0.3556 2.3368 0 2.6416-1.4732 4.572-1.4224 1.9304-3.7084 2.9464t-4.7244 1.016q-0.508 0-1.0668 0t-1.1176-0.0508q-0.762 0.6604-1.27 1.3716-0.4572 0.6604-0.4572 1.8288 0 0.4064 0.4064 0.8636 0.4064 0.4064 0.762 0.508 0.762 0.254 1.6256 0.3556 0.8636 0.0508 1.6256 0.1524 1.9812 0.1016 4.1656 0.2032t4.064 0.8636q1.9304 0.7112 3.048 2.7432 0.3048 0.508 0.3556 1.016 0.1016 0.508 0.1016 1.1176 0 2.1844-1.27 3.6068-1.2192 1.4732-3.1496 2.3368-1.8796 0.8636-4.0132 1.2192-2.0828 0.4064-3.81 0.4064-1.27 0-3.2512-0.2032-1.9812-0.1524-3.9624-0.7112-1.9304-0.5588-3.2512-1.6256t-1.3208-2.8956q0-1.4224 0.6604-2.5908t1.6256-2.1336q1.016-1.016 1.9812-1.8288-0.6096-0.1524-1.5748-0.6096-0.9652-0.508-0.9652-1.27 0-0.5588 0.508-1.3716t1.27-1.6764 1.4732-1.5748q0.762-0.762 1.1684-1.1684-2.3368-1.27-3.6576-3.2512-1.3208-2.032-1.3208-4.7244 0-2.794 1.524-4.6736 1.5748-1.9304 3.9624-2.8956 2.4384-1.016 4.9276-1.016 0.7112 0 1.4732 0.1016t1.4732 0.254q0.8128 0.2032 1.6256 0.4572 0.8128 0.2032 1.6764 0.2032 1.9304 0 3.9116-0.5588 1.1684-0.3048 1.778-1.1176t1.0668-0.8128 0.5588 0.5588q0.1524 0.508 0.1016 1.1684 0 0.6096 0 0.9144z"/>
    <path d="m122.19 168.56q-0.1524-2.3876-0.2032-4.7752-0.0508-2.4384 0-4.8768-2.0828 0.3556-4.064 1.3208-1.9304 0.9144-3.2004 2.4892t-1.27 4.0132q0 1.016 0.254 2.1844 0.3048 1.1684 1.016 1.9812 0.762 0.762 2.032 0.762 0.9144 0 1.9304-0.508 1.016-0.5588 1.9304-1.27 0.9652-0.7112 1.5748-1.3208zm10.465 2.9972q0 0.2032-0.2032 0.4572-0.1524 0.254-0.3048 0.4064-1.5748 1.8288-4.064 1.8288-2.1844 0-3.5052-0.9652t-2.032-2.9972q-1.6256 1.7272-3.5052 2.7432-1.8288 1.016-4.318 1.016-1.778 0-3.6068-0.762-1.778-0.8128-2.9972-2.286-1.1684-1.4732-1.1684-3.4036t0.9652-3.4036q1.016-1.524 2.54-2.5908 1.524-1.1176 3.0988-1.8288 2.032-0.8636 4.1656-1.3208 2.1336-0.508 4.2672-1.016v-0.2032q0-0.9144-0.0508-2.4384 0-1.5748-0.3048-3.0988-0.3048-1.5748-1.016-2.6416-0.7112-1.1176-2.0828-1.1176-1.5748 0-2.8448 0.9144-1.2192 0.9144-1.7272 2.4384-0.1016 0.4572-0.1524 0.9144-0.0508 0.4064-0.1524 0.8636-0.1016 0.8128-0.9652 1.1176-0.8128 0.254-1.524 0.254-0.8636 0-1.6764-0.3556-0.8128-0.4064-0.8128-1.4732 0-0.4064 0.1016-0.7112 0.1524-0.3556 0.3048-0.7112 0.8128-1.9304 2.4384-2.8448t3.556-1.2192q1.9812-0.3048 3.7592-0.3048 4.1656 0 6.858 2.2352t2.6924 6.604v7.6708q-0.0508 1.4224-0.0508 2.9464 0.0508 1.4732 0.1524 2.9464 0.1016 0.8636 0.4064 1.6764 0.3048 0.762 1.3716 0.762 0.7112 0 1.1684-0.3048 0.508-0.3048 0.9144-0.3048 0.2032 0 0.254 0.2032t0.0508 0.3048z"/>
    <path d="m152.82 154.64q0-1.3208-0.4572-2.7432-0.4064-1.4732-1.3716-2.4892-0.9144-1.016-2.54-1.016-0.8128 0-1.5748 0.2032t-1.4732 0.762q-1.4224 1.1176-2.286 3.1496-0.8128 2.032-1.1684 4.318-0.3048 2.2352-0.3048 3.9624 0 1.4224 0.1524 3.3528 0.2032 1.8796 0.762 3.7084t1.6764 3.048q1.1176 1.1684 3.048 1.1684 1.1684 0 2.286-0.8128 1.1176-0.8636 1.9812-2.032 0.9144-1.1684 1.27-2.1844zm10.668 17.17q0 0.4572-0.7112 0.9144-0.6604 0.4064-1.6256 0.7112t-1.8796 0.508q-0.9144 0.1524-1.3208 0.1524-1.8288 0-2.9972-1.1176t-1.8288-2.6924q-1.016 1.4224-2.7432 2.54-1.6764 1.1176-3.4544 1.1176-1.5748 0-3.3528-0.3048-1.7272-0.3048-3.0988-1.2192-2.794-1.8796-4.1656-4.9784-1.3716-3.1496-1.3716-6.4008 0-4.2164 1.524-7.366 1.5748-3.2004 4.572-4.9784t7.3152-1.778q1.0668 0 2.2352 0.4572 1.2192 0.4064 2.1336 0.9144v-8.7884q0-0.5588-0.1524-1.27-0.1016-0.762-0.8636-0.762t-1.524 0.0508q-0.7112 0.0508-1.4224 0.0508t-0.7112-0.6096 0.5588-0.6604q0.4064-0.1016 0.8128-0.1016t0.762-0.0508q0.9652-0.1016 1.8796-0.254t1.8288-0.3048q0.9652-0.2032 1.8796-0.4064t1.8288-0.4572q0.254-0.1016 0.4572-0.1524t0.4064-0.0508q0.762 0 0.762 0.8128v33.071q0 0.6096 0.0508 1.4224 0.1016 0.762 0.4572 1.3716 0.4064 0.5588 1.2192 0.5588 0.5588 0 1.1176-0.254 0.6096-0.254 0.9652-0.254 0.254 0 0.3556 0.2032 0.1016 0.1524 0.1016 0.3556z"/>
    <path d="m179.59 173.33c0 0.54187-0.27093 0.8128-0.8128 0.8128-0.98213 0-1.9812-0.0508-2.9972-0.1524-1.016-0.0677-2.032-0.1016-3.048-0.1016s-2.0489 0.0339-3.0988 0.1016c-1.016 0.1016-2.032 0.1524-3.048 0.1524-0.23707 0-0.4064-0.0847-0.508-0.254-0.1016-0.2032-0.1524-0.38947-0.1524-0.5588 0-0.54187 0.254-0.8128 0.762-0.8128 0.33867 0 0.6604 0.0169 0.9652 0.0508s0.6096 0.0508 0.9144 0.0508c0.4064 0 0.6604-0.13547 0.762-0.4064 0.13547-0.27093 0.2032-0.57573 0.2032-0.9144v-20.168c0-0.33867-0.0339-0.7112-0.1016-1.1176-0.0677-0.44027-0.33867-0.6604-0.8128-0.6604-0.44027 0-0.89747 0.0339-1.3716 0.1016s-0.94827 0.1016-1.4224 0.1016c-0.2032 0-0.4064-0.0508-0.6096-0.1524-0.16933-0.1016-0.254-0.27093-0.254-0.508 0-0.44027 0.22013-0.72813 0.6604-0.8636 0.37253-0.0677 0.762-0.11853 1.1684-0.1524 0.44027-0.0677 0.84667-0.11853 1.2192-0.1524 1.1853-0.16933 2.3368-0.37253 3.4544-0.6096l3.4544-0.8128h0.3048c0.1016-0.0339 0.18627-0.0508 0.254-0.0508 0.508 0 0.762 0.2032 0.762 0.6096 0 4.064-0.0169 8.1449-0.0508 12.243-0.0339 4.064-0.0508 8.128-0.0508 12.192 0 0.6096 0.13547 0.99907 0.4064 1.1684 0.27093 0.13547 0.6096 0.18627 1.016 0.1524 0.44027-0.0339 0.88053-0.0508 1.3208-0.0508 0.47413 0 0.7112 0.254 0.7112 0.762z"/>
    <path d="m197.32 173.28q0 0.8128-0.8128 0.8128-1.5748 0-3.0988-0.1524-1.524-0.1016-3.0988-0.1016-1.6256 0-3.302 0.1016-1.6256 0.1524-3.2512 0.1524-0.3556 0-0.508-0.254-0.1524-0.3048-0.1524-0.6096 0-0.5588 0.508-0.7112 0.5588-0.1524 1.2192-0.1016 0.7112 0.0508 1.0668 0.0508 1.1176 0 1.1176-1.2192v-4.1148q0-6.7056 0-13.36 0-6.7056 0-13.411 0-0.5588-0.1016-1.3716-0.1016-0.8636-0.9652-0.8636-0.6096 0-1.2192 0.2032-0.5588 0.1524-1.1684 0.1524-0.762 0-0.762-0.8128 0-0.5588 0.6604-0.8128 0.6604-0.2032 1.3716-0.3048 0.762-0.1016 1.4224-0.254 1.524-0.3556 2.9972-0.7112 1.524-0.4064 2.9972-0.762 0.1524-0.0508 0.3048-0.0508 0.1524-0.0508 0.3048-0.0508 0.3048 0 0.5588 0.1524 0.3048 0.1016 0.3048 0.508 0 8.9408-0.0508 17.932t-0.0508 17.932q0 0.8636 0.508 1.1176t1.2192 0.2032q0.7112-0.1016 1.27-0.1016 0.7112 0 0.7112 0.8128z"/>
    <path d="m214.9 173.28q0 0.8128-0.8128 0.8128-1.5748 0-3.0988-0.1524-1.524-0.1016-3.0988-0.1016-1.6256 0-3.302 0.1016-1.6256 0.1524-3.2512 0.1524-0.3556 0-0.508-0.254-0.1524-0.3048-0.1524-0.6096 0-0.5588 0.508-0.7112 0.5588-0.1524 1.2192-0.1016 0.7112 0.0508 1.0668 0.0508 1.1176 0 1.1176-1.2192v-4.1148q0-6.7056 0-13.36 0-6.7056 0-13.411 0-0.5588-0.1016-1.3716-0.1016-0.8636-0.9652-0.8636-0.6096 0-1.2192 0.2032-0.5588 0.1524-1.1684 0.1524-0.762 0-0.762-0.8128 0-0.5588 0.6604-0.8128 0.6604-0.2032 1.3716-0.3048 0.762-0.1016 1.4224-0.254 1.524-0.3556 2.9972-0.7112 1.524-0.4064 2.9972-0.762 0.1524-0.0508 0.3048-0.0508 0.1524-0.0508 0.3048-0.0508 0.3048 0 0.5588 0.1524 0.3048 0.1016 0.3048 0.508 0 8.9408-0.0508 17.932t-0.0508 17.932q0 0.8636 0.508 1.1176t1.2192 0.2032q0.7112-0.1016 1.27-0.1016 0.7112 0 0.7112 0.8128z"/>
    <path d="m238.57 160.58q0-1.6764-0.254-3.81-0.2032-2.1844-0.9144-4.2164t-2.0828-3.3528q-1.3208-1.3716-3.6068-1.3716-2.0828 0-3.3528 1.3208t-1.9812 3.302q-0.6604 1.9812-0.9144 4.1148-0.254 2.0828-0.254 3.6068 0 1.6764 0.2032 3.8608 0.254 2.1336 0.9652 4.1656t2.0828 3.3528 3.6576 1.3208q2.1336 0 3.4036-1.27 1.3208-1.3208 1.9812-3.2512 0.6604-1.9812 0.8636-4.064 0.2032-2.1336 0.2032-3.7084zm6.9088 0.254q0 3.9116-1.778 6.9596-1.778 2.9972-4.8768 4.7244-3.048 1.7272-6.9596 1.7272t-6.9088-1.8288-4.7244-4.9276q-1.6764-3.0988-1.6764-6.9596 0-4.0132 1.6764-7.1628 1.6764-3.2004 4.7244-5.0292 3.048-1.8796 7.112-1.8796 4.4704 0 7.4168 1.8288 2.9972 1.778 4.4704 5.0292 1.524 3.2004 1.524 7.5184z"/>
   </g>
   <path d="m176.21 138.69c0 1.0499-0.38947 1.9643-1.1684 2.7432-0.74507 0.77893-1.6595 1.1684-2.7432 1.1684-1.0499 0-1.9643-0.38947-2.7432-1.1684-0.77894-0.77894-1.1684-1.6933-1.1684-2.7432 0-1.0837 0.38946-1.9981 1.1684-2.7432 0.77893-0.77894 1.6933-1.1684 2.7432-1.1684 1.0837 0 1.9981 0.38946 2.7432 1.1684 0.77893 0.74506 1.1684 1.6595 1.1684 2.7432z" fill="#eac454" stroke-width=".070004"/>
   <path d="m255.94 170.38c0 1.0499-0.38947 1.9643-1.1684 2.7432-0.74507 0.77893-1.6595 1.1684-2.7432 1.1684-1.0499 0-1.9643-0.38947-2.7432-1.1684-0.77894-0.77894-1.1684-1.6933-1.1684-2.7432 0-1.0837 0.38946-1.9981 1.1684-2.7432 0.77893-0.77894 1.6933-1.1684 2.7432-1.1684 1.0837 0 1.9981 0.38946 2.7432 1.1684 0.77893 0.74506 1.1684 1.6595 1.1684 2.7432z" fill="#1a322b" stroke-width=".070004"/>
  </g>
 </g>
</svg>
